<svg id="gkl_1_" data-name="gkl(1)" xmlns="http://www.w3.org/2000/svg" width="94.441" height="50" viewBox="0 0 94.441 50">
  <path id="Path_1" data-name="Path 1" d="M135.075,255.52a4.594,4.594,0,0,1,3.162-1.165,3.863,3.863,0,0,1,3.425,1.917l8.411-3.159a11.607,11.607,0,0,0-4.765-4.626,14.749,14.749,0,0,0-7.295-1.767c-4.987,0-8.411,1.841-10.421,3.948a14.068,14.068,0,0,0-.224,18.128c1.861,2.03,5.025,4.13,10.236,4.13,4.087,0,8.076-1.428,10.541-4.1,2.977-3.233,3.227-7.409,3.227-10.491v-.565H137.42v5.943h4.087a3.693,3.693,0,0,1-3.685,2.143,4.119,4.119,0,0,1-2.932-1.122,7.008,7.008,0,0,1,.185-9.215Z" transform="translate(-111.871 -234.824)" fill="#42ece1"/>
  <path id="Path_2" data-name="Path 2" d="M307.774,57.31l-2.534,4.026V77.464l3.27,4.933h13.329V74.31h-7.592v-17Z" transform="translate(-239.575 -44.851)" fill="#42ece1"/>
  <path id="Path_3" data-name="Path 3" d="M67,192v50h73.537l-16.743-25.243,7.745-12.3h-9.747L116.023,215.4c.026-1.448.185-10.946.185-10.946h-8.633v25.087h8.633s-.159-9.5-.185-10.457l8.7,14.215H75.605V200.7h77.23V233.3H138.422l5.765,8.7h17.253V192Z" transform="translate(-67 -192)" fill="#42ece1"/>
</svg>
