<svg xmlns="http://www.w3.org/2000/svg" width="959.649" height="864.642" viewBox="0 0 959.649 864.642">
  <g id="Group_6" data-name="Group 6" transform="translate(46.377 -215.403)">
    <path id="Path_5" data-name="Path 5" d="M1618.283,984.3S1826.615,1558.935,2000,1460.076c81.664-46.562,174.52,144.61,261.6,244.867,58.967,67.892,217.254,93.586,270.094,97.451,13.122.96-199.376.563-270.114.6-228.182.121-642.615-.118-642.615-.118L1572.623,938.4Z" transform="translate(-1619 -723)" fill="#fff"/>
    <g id="alpine" transform="translate(161.847 527.314) rotate(25)">
      <path id="Path_6" data-name="Path 6" d="M386.37,8.745A8.745,8.745,0,1,1,377.625,0a8.745,8.745,0,0,1,8.745,8.745Zm0,0" transform="translate(-306.873)" fill="#42ece1"/>
      <path id="Path_7" data-name="Path 7" d="M118.244,124.324a9.254,9.254,0,0,1-10.418.5L78.613,107.011a4.358,4.358,0,0,0,1.471-.346l20.508-9.125a6.7,6.7,0,0,0,.846-11.806L90.448,77.979a1.458,1.458,0,0,1-.32-2.186l2.128-1.064-.919-.642a5.831,5.831,0,0,1-2.376-3.556l-.554-2.595a5.8,5.8,0,0,1,4.46-6.923l2.959-.642a1.459,1.459,0,0,1,1.735,1.123,1.432,1.432,0,0,1-1.108,1.72l-2.959.641a2.935,2.935,0,0,0-2.245,3.469l.569,2.595A2.866,2.866,0,0,0,93,71.7l2.216,1.545.029-.014,10.349,7.215a4.682,4.682,0,0,0,5.084.175,1.49,1.49,0,0,0,.459.345l5.9,2.8a1.458,1.458,0,0,0,1.253-2.633l-5.858-2.79A4.342,4.342,0,0,0,110.8,73.4l-5.247-3.659a.729.729,0,0,1,.262-1.312l2.069-.438a1.458,1.458,0,0,0,1.108-1.734l-.86-4.038a10.779,10.779,0,0,0-2.915-5.335,10.19,10.19,0,0,0-13.643-.7l-3.834,3.119-5.779,4.7a1.46,1.46,0,0,0-.5-.409L64.3,55.427l.745-1.474a1.458,1.458,0,0,0-2.609-1.3l-.768,1.526-4.6-2.186a1.457,1.457,0,1,0-1.254,2.623l4.545,2.165-.85,1.7a1.458,1.458,0,1,0,2.609,1.3l.875-1.749,16.592,7.9L76.5,68.447a7.75,7.75,0,0,0-1.836,2.113,7.509,7.509,0,0,0-.787,3.411,8.091,8.091,0,0,0,3.6,6.778l13.847,8.877a1.458,1.458,0,0,1-.2,2.551l-14.357,6.4a4.534,4.534,0,0,0-2.537,5.655,1.59,1.59,0,0,0,.077.146l-20.016-12.2a1.458,1.458,0,1,0-1.519,2.488l53.541,32.65a12.145,12.145,0,0,0,13.685-.655,1.458,1.458,0,1,0-1.749-2.332Zm0,0" transform="translate(-43.266 -43.099)" fill="#42ece1"/>
      <path id="Path_8" data-name="Path 8" d="M13.176,183.765a1.457,1.457,0,0,0,.774-2.693L2.289,173.783a1.46,1.46,0,0,0-1.545,2.478L12.4,183.549a1.46,1.46,0,0,0,.771.216Zm0,0" transform="translate(0 -144.41)" fill="#42ece1"/>
      <path id="Path_9" data-name="Path 9" d="M61.48,176.226l11.661,7.287a1.46,1.46,0,1,0,1.545-2.478l-11.661-7.288a1.46,1.46,0,1,0-1.545,2.478Zm0,0" transform="translate(-50.534 -144.38)" fill="#42ece1"/>
    </g>
  </g>
</svg>
